#!OML:ASF X:\für Bonn\!DataBase\2005_08_12_Daniel\c3d\Daniel.ASF
:FULLY-SPECIFIED
:DEGREES
112
root 4.35504 16.6143 0.0322476 146.617 -103.011 -165.889
lowerback 13.6056 -3.83713 -7.34437
upperback 5.84235 -6.5852 -6.85997
thorax -1.43098 -3.49469 -2.12575
lowerneck 14.6056 7.68187 -3.20604
upperneck 9.08075 8.95534 7.86896
head -0.097593 4.05816 2.63899
rclavicle 2.05742e-014 -4.29375e-014
rhumerus -57.7449 6.82224 -88.1736
rradius 34.3166
rwrist 20.8645
rhand -21.9596 22.3243
rfingers 7.12502
rthumb 4.44781 -7.60902
lclavicle 2.05742e-014 -4.29375e-014
lhumerus 12.9757 -15.6009 61.1635
lradius 116.963
lwrist 16.7388
lhand -17.4998 -22.0545
lfingers 7.12502
lthumb 8.75302 7.74399
rfemur -5.98485 -10.6211 17.7527
rtibia 51.0127
rfoot -27.9257 -13.1275
rtoes -4.43274
lfemur -13.3662 -8.22099 -19.2088
ltibia 82.5979
lfoot 10.4024 -0.12439
ltoes -16.1393
113
root 4.40364 16.6127 0.0552513 147.835 -102.946 -166.708
lowerback 13.2037 -4.10652 -7.39816
upperback 5.70482 -6.89002 -6.71662
thorax -1.33141 -3.64113 -1.93248
lowerneck 14.7458 7.76936 -2.923
upperneck 9.06954 9.10855 7.55851
head -0.0980667 4.14014 2.47305
rclavicle -3.30976e-014 3.18055e-015
rhumerus -57.2699 6.25575 -86.9511
rradius 33.9078
rwrist 21.8654
rhand -22.0792 22.4152
rfingers 7.12502
rthumb 4.33233 -7.52048
lclavicle -3.30976e-014 3.18055e-015
lhumerus 13.2654 -15.229 60.9667
lradius 116.856
lwrist 16.687
lhand -17.459 -21.7373
lfingers 7.12502
lthumb 8.79244 8.05951
rfemur -6.62017 -10.5561 17.9903
rtibia 51.0247
rfoot -27.8932 -13.1879
rtoes -4.32915
lfemur -11.6162 -8.18092 -18.7808
ltibia 81.0805
lfoot 9.11627 -0.223555
ltoes -14.5923
114
root 4.45291 16.6139 0.0780409 149.015 -102.921 -167.483
lowerback 12.7971 -4.36872 -7.48781
upperback 5.57646 -7.18923 -6.57425
thorax -1.21239 -3.78629 -1.72715
lowerneck 14.8595 7.84527 -2.60676
upperneck 9.08979 9.24994 7.24152
head -0.0802596 4.21819 2.30296
rclavicle 3.63776e-014 -2.06736e-014
rhumerus -56.786 5.663 -85.7696
rradius 33.594
rwrist 22.7864
rhand -22.1672 22.4154
rfingers 7.12502
rthumb 4.24728 -7.52202
lclavicle 3.63776e-014 -2.06736e-014
lhumerus 13.503 -14.9075 60.7915
lradius 116.772
lwrist 16.5866
lhand -17.5145 -21.4189
lfingers 7.12502
lthumb 8.7389 8.38016
rfemur -7.2492 -10.5049 18.2006
rtibia 51.003
rfoot -27.8374 -13.297
rtoes -4.40702
lfemur -9.93763 -8.13667 -18.3668
ltibia 79.5099
lfoot 7.50754 -0.434493
ltoes -12.4502
115
root 4.50267 16.616 0.101556 150.14 -102.9 -168.215
lowerback 12.4106 -4.62825 -7.58188
upperback 5.44598 -7.48896 -6.43961
thorax -1.10393 -3.93175 -1.5298
lowerneck 15.0317 7.91546 -2.2709
upperneck 9.05552 9.39007 6.91057
head -0.0867746 4.29494 2.1236
rclavicle 7.45443e-015 2.22639e-014
rhumerus -56.3344 5.10179 -84.6892
rradius 33.3866
rwrist 23.6471
rhand -22.2151 22.3074
rfingers 7.12502
rthumb 4.20105 -7.63091
lclavicle 7.45443e-015 2.22639e-014
lhumerus 13.6594 -14.5982 60.6266
lradius 116.688
lwrist 16.5196
lhand -17.5082 -21.1998
lfingers 7.12502
lthumb 8.74498 8.599
rfemur -7.84768 -10.4344 18.3968
rtibia 50.9492
rfoot -27.7793 -13.4252
rtoes -4.49422
lfemur -8.30146 -8.08571 -17.9701
ltibia 77.859
lfoot 5.51303 -0.711815
ltoes -10.6299
116
root 4.55208 16.622 0.125196 151.188 -102.888 -168.851
lowerback 11.9841 -4.87518 -7.70033
upperback 5.3296 -7.76994 -6.31311
thorax -0.954368 -4.07011 -1.33947
lowerneck 15.1669 7.96769 -1.88463
upperneck 9.03504 9.51519 6.57014
head -0.0779657 4.36723 1.93684
rclavicle -7.97127e-014 6.36111e-015
rhumerus -55.8643 4.54454 -83.7333
rradius 33.2547
rwrist 24.3456
rhand -22.2174 22.0877
rfingers 7.12502
rthumb 4.19887 -7.8507
lclavicle -7.97127e-014 6.36111e-015
lhumerus 13.7417 -14.3288 60.4935
lradius 116.65
lwrist 16.4559
lhand -17.518 -21.0628
lfingers 7.12502
lthumb 8.73545 8.7364
rfemur -8.43948 -10.3287 18.5708
rtibia 50.8593
rfoot -27.7128 -13.5562
rtoes -4.405
lfemur -6.7486 -8.0286 -17.6037
ltibia 76.1445
lfoot 2.99383 -1.07538
ltoes -10.1057
117
root 4.60253 16.6299 0.14924 152.146 -102.886 -169.41
lowerback 11.5897 -5.11731 -7.86468
upperback 5.21535 -8.05207 -6.16634
thorax -0.807484 -4.20984 -1.10531
lowerneck 15.2946 8.02379 -1.56642
upperneck 9.02144 9.63597 6.23815
head -0.069009 4.43577 1.76652
rclavicle -4.02539e-014 -9.54166e-015
rhumerus -55.3587 4.08182 -82.8427
rradius 33.1833
rwrist 24.8647
rhand -22.1375 21.8733
rfingers 7.12502
rthumb 4.27602 -8.06354
lclavicle -4.02539e-014 -9.54166e-015
lhumerus 13.7178 -14.064 60.4172
lradius 116.638
lwrist 16.3738
lhand -17.5513 -21.0697
lfingers 7.12502
lthumb 8.70335 8.73089
rfemur -9.00089 -10.1926 18.7299
rtibia 50.7319
rfoot -27.6211 -13.7332
rtoes -4.45874
lfemur -5.29345 -7.96114 -17.25
ltibia 74.3842
lfoot 0.079779 -1.58248
ltoes -11.2123
118
root 4.65349 16.6389 0.174048 152.96 -102.925 -169.815
lowerback 11.1977 -5.35495 -8.05526
upperback 5.09357 -8.33339 -6.05251
thorax -0.667535 -4.34954 -0.895033
lowerneck 15.4503 8.08015 -1.22654
upperneck 8.9933 9.7605 5.93391
head -0.0691108 4.50573 1.60146
rclavicle 4.54223e-014 4.6118e-014
rhumerus -54.8983 3.73441 -82.1817
rradius 33.1787
rwrist 25.0357
rhand -22.0779 21.5993
rfingers 7.12502
rthumb 4.33352 -8.33632
lclavicle 4.54223e-014 4.6118e-014
lhumerus 13.6088 -13.8708 60.3424
lradius 116.633
lwrist 16.2825
lhand -17.6058 -21.1469
lfingers 7.12502
lthumb 8.65078 8.65586
rfemur -9.54967 -10.0467 18.8346
rtibia 50.5795
rfoot -27.548 -13.9203
rtoes -4.48755
lfemur -3.95096 -7.90887 -16.9585
ltibia 72.5786
lfoot -2.94733 -2.17954
ltoes -13.0018
119
root 4.70445 16.6499 0.199137 153.81 -102.95 -170.278
lowerback 10.803 -5.58782 -8.25133
upperback 5.00308 -8.60499 -5.91874
thorax -0.486285 -4.48702 -0.669839
lowerneck 15.5446 8.13365 -0.967256
upperneck 8.95936 9.87291 5.64973
head -0.0661249 4.56935 1.45975
rclavicle -1.86858e-014 -3.81667e-014
rhumerus -54.3719 3.53582 -81.6518
rradius 33.2381
rwrist 24.9154
rhand -21.9725 21.3798
rfingers 7.12502
rthumb 4.43528 -8.55377
lclavicle -1.86858e-014 -3.81667e-014
lhumerus 13.4086 -13.6506 60.3331
lradius 116.662
lwrist 16.1882
lhand -17.6044 -21.2939
lfingers 7.12502
lthumb 8.65213 8.50882
rfemur -10.0613 -9.87212 18.9562
rtibia 50.3998
rfoot -27.4327 -14.1328
rtoes -4.3946
lfemur -2.65519 -7.86955 -16.6535
ltibia 70.7214
lfoot -5.91227 -2.89318
ltoes -14.6528
120
root 4.75675 16.6617 0.225034 154.549 -102.988 -170.645
lowerback 10.4483 -5.80964 -8.4581
upperback 4.9024 -8.86903 -5.80094
thorax -0.335474 -4.62005 -0.454902
lowerneck 15.6471 8.1846 -0.692081
upperneck 8.94797 9.98172 5.38567
head -0.0568548 4.63103 1.32327
rclavicle -1.39149e-014 -1.59028e-015
rhumerus -53.8018 3.31418 -81.197
rradius 33.2354
rwrist 24.7
rhand -21.9036 21.2456
rfingers 7.12502
rthumb 4.50184 -8.68655
lclavicle -1.39149e-014 -1.59028e-015
lhumerus 13.11 -13.487 60.3495
lradius 116.757
lwrist 16.1077
lhand -17.6086 -21.4321
lfingers 7.12502
lthumb 8.6481 8.37072
rfemur -10.5564 -9.73743 19.0324
rtibia 50.2257
rfoot -27.317 -14.3244
rtoes -4.44154
lfemur -1.4007 -7.84527 -16.3787
ltibia 68.7987
lfoot -8.74616 -3.71616
ltoes -15.8099
121
root 4.81102 16.673 0.252269 155.23 -103.037 -170.955
lowerback 10.0913 -6.02784 -8.67775
upperback 4.81476 -9.12742 -5.67964
thorax -0.16413 -4.75185 -0.235819
lowerneck 15.6711 8.23653 -0.477068
upperneck 8.96988 10.0827 5.14761
head -0.0288727 4.68904 1.20944
rclavicle 5.80451e-014 -4.92986e-014
rhumerus -53.1833 3.09185 -80.7943
rradius 33.2778
rwrist 24.3244
rhand -21.791 21.2294
rfingers 7.12502
rthumb 4.61056 -8.70046
lclavicle 5.80451e-014 -4.92986e-014
lhumerus 12.763 -13.3414 60.4281
lradius 116.865
lwrist 15.9821
lhand -17.5827 -21.6246
lfingers 7.12502
lthumb 8.67304 8.17722
rfemur -11.0657 -9.59313 19.08
rtibia 50.078
rfoot -27.1829 -14.504
rtoes -4.34622
lfemur -0.208023 -7.82127 -16.1292
ltibia 66.823
lfoot -11.4099 -4.59859
ltoes -16.4847
122
root 4.86749 16.6814 0.279933 155.749 -103.09 -171.09
lowerback 9.7481 -6.23733 -8.94213
upperback 4.71404 -9.37981 -5.55469
thorax -0.0031476 -4.88081 0.00826439
lowerneck 15.7032 8.29406 -0.311289
upperneck 8.976 10.1846 4.93477
head -0.0113705 4.74569 1.11119
rclavicle 3.81667e-014 1.27222e-014
rhumerus -52.5501 2.83943 -80.4104
rradius 33.3107
rwrist 23.9655
rhand -21.7165 21.3541
rfingers 7.12502
rthumb 4.68253 -8.57418
lclavicle 3.81667e-014 1.27222e-014
lhumerus 12.3366 -13.2178 60.5726
lradius 117.016
lwrist 15.8514
lhand -17.5886 -21.7553
lfingers 7.12502
lthumb 8.66732 8.04675
rfemur -11.6322 -9.47387 19.0756
rtibia 49.9873
rfoot -27.0571 -14.6641
rtoes -4.36482
lfemur 0.928182 -7.76439 -15.9242
ltibia 64.7905
lfoot -13.8415 -5.52407
ltoes -16.7952
123
root 4.92818 16.6838 0.309256 156.252 -103.129 -171.212
lowerback 9.41556 -6.42944 -9.17296
upperback 4.62388 -9.60723 -5.45067
thorax 0.155574 -4.99758 0.208858
lowerneck 15.6868 8.32996 -0.108863
upperneck 8.99497 10.264 4.73565
head 0.0197445 4.79338 1.01529
rclavicle 1.06052e-013 -3.02153e-014
rhumerus -51.902 2.44412 -80.0455
rradius 33.3574
rwrist 23.6496
rhand -21.6701 21.5746
rfingers 7.12502
rthumb 4.72728 -8.35264
lclavicle 1.06052e-013 -3.02153e-014
lhumerus 11.8811 -13.1446 60.706
lradius 117.214
lwrist 15.7643
lhand -17.5969 -21.8667
lfingers 7.12502
lthumb 8.65934 7.93575
rfemur -12.2532 -9.37359 19.053
rtibia 49.966
rfoot -26.9056 -14.7734
rtoes -4.31219
lfemur 2.01675 -7.64982 -15.7317
ltibia 62.7138
lfoot -16.0234 -6.43783
ltoes -16.875
124
root 4.99171 16.6828 0.340307 156.692 -103.172 -171.286
lowerback 9.10586 -6.61526 -9.39799
upperback 4.53942 -9.82783 -5.34979
thorax 0.308479 -5.11119 0.40207
lowerneck 15.6408 8.36056 0.0968372
upperneck 9.03445 10.3364 4.52755
head 0.0630516 4.83861 0.918783
rclavicle 5.04913e-014 0
rhumerus -51.2288 1.934 -79.6693
rradius 33.4045
rwrist 23.4419
rhand -21.5996 21.8831
rfingers 7.12502
rthumb 4.79535 -8.04261
lclavicle 5.04913e-014 0
lhumerus 11.3914 -13.1075 60.9086
lradius 117.399
lwrist 15.6121
lhand -17.6018 -21.9691
lfingers 7.12502
lthumb 8.65464 7.83352
rfemur -12.8955 -9.26903 19.0048
rtibia 49.994
rfoot -26.7848 -14.8915
rtoes -4.24881
lfemur 3.02022 -7.44716 -15.5544
ltibia 60.6385
lfoot -18.073 -7.33112
ltoes -16.9906
125
root 5.06172 16.6839 0.372842 156.975 -103.208 -171.185
lowerback 8.85211 -6.79002 -9.64435
upperback 4.43908 -10.0432 -5.2438
thorax 0.42084 -5.22075 0.617415
lowerneck 15.5316 8.39348 0.248494
upperneck 9.08911 10.404 4.35276
head 0.116034 4.88114 0.844467
rclavicle 2.64384e-014 2.70347e-014
rhumerus -50.5525 1.48027 -79.3856
rradius 33.4832
rwrist 23.1594
rhand -21.5577 22.1751
rfingers 7.12502
rthumb 4.83589 -7.7497
lclavicle 2.64384e-014 2.70347e-014
lhumerus 10.8769 -13.0765 61.1682
lradius 117.585
lwrist 15.4381
lhand -17.6246 -22.0662
lfingers 7.12502
lthumb 8.63261 7.73725
rfemur -13.611 -9.19307 18.9027
rtibia 50.0744
rfoot -26.6195 -14.9827
rtoes -4.25917
lfemur 3.84058 -7.17872 -15.4402
ltibia 58.6316
lfoot -19.6405 -8.16456
ltoes -17.2193
126
root 5.14333 16.6843 0.406994 157.253 -103.233 -171.074
lowerback 8.7058 -6.9498 -9.84789
upperback 4.3146 -10.2519 -5.14895
thorax 0.441019 -5.32214 0.815309
lowerneck 15.4041 8.4022 0.453347
upperneck 9.15112 10.4486 4.13649
head 0.17998 4.91475 0.752013
rclavicle -1.98785e-015 -1.59028e-015
rhumerus -49.9135 0.937242 -79.1597
rradius 33.635
rwrist 22.9352
rhand -21.5159 22.3328
rfingers 7.12502
rthumb 4.87618 -7.59112
lclavicle -1.98785e-015 -1.59028e-015
lhumerus 10.3806 -13.1101 61.4278
lradius 117.732
lwrist 15.2476
lhand -17.7593 -22.0755
lfingers 7.12502
lthumb 8.50263 7.73333
rfemur -14.4015 -9.11923 18.7907
rtibia 50.2014
rfoot -26.4251 -15.0789
rtoes -4.29733
lfemur 4.45873 -6.87221 -15.3376
ltibia 56.7712
lfoot -20.9527 -8.95259
ltoes -17.413
